<svg width="37" height="37" viewBox="0 0 37 37" fill="none" xmlns="http://www.w3.org/2000/svg">
<path d="M32.375 19.7179C32.1325 22.3421 31.1476 24.843 29.5356 26.928C27.9236 29.0129 25.7512 30.5956 23.2725 31.4909C20.7938 32.3862 18.1114 32.5571 15.5392 31.9836C12.967 31.41 10.6113 30.1158 8.74773 28.2522C6.88422 26.3887 5.58996 24.033 5.01641 21.4608C4.44286 18.8885 4.61374 16.2061 5.50905 13.7275C6.40437 11.2488 7.98708 9.07636 10.072 7.46437C12.1569 5.85238 14.6578 4.86751 17.2821 4.625C15.7456 6.70358 15.0063 9.26457 15.1985 11.8422C15.3908 14.4198 16.5018 16.8428 18.3295 18.6705C20.1572 20.4982 22.5802 21.6092 25.1578 21.8014C27.7354 21.9936 30.2964 21.2543 32.375 19.7179Z" stroke="#1F2D5C" stroke-width="2" stroke-linecap="round" stroke-linejoin="round"/>
</svg>
