<?xml version="1.0" encoding="UTF-8" standalone="no"?>
<!-- Created with Inkscape (http://www.inkscape.org/) -->

<svg
   width="15.081253mm"
   height="14.816666mm"
   viewBox="0 0 15.081253 14.816666"
   version="1.1"
   id="svg5"
   xml:space="preserve"
   xmlns="http://www.w3.org/2000/svg"
   xmlns:svg="http://www.w3.org/2000/svg"><defs
     id="defs2"><filter
       id="filter0_d_43_48"
       x="0"
       y="0"
       width="81.422096"
       height="80.153099"
       filterUnits="userSpaceOnUse"
       color-interpolation-filters="sRGB"><feFlood
         flood-opacity="0"
         result="BackgroundImageFix"
         id="feFlood190" /><feColorMatrix
         in="SourceAlpha"
         type="matrix"
         values="0 0 0 0 0 0 0 0 0 0 0 0 0 0 0 0 0 0 127 0"
         result="hardAlpha"
         id="feColorMatrix192" /><feMorphology
         radius="3"
         operator="erode"
         in="SourceAlpha"
         result="effect1_dropShadow_43_48"
         id="feMorphology194" /><feOffset
         dy="10"
         id="feOffset196" /><feGaussianBlur
         stdDeviation="7.5"
         id="feGaussianBlur198" /><feComposite
         in2="hardAlpha"
         operator="out"
         id="feComposite200" /><feColorMatrix
         type="matrix"
         values="0 0 0 0 0 0 0 0 0 0 0 0 0 0 0 0 0 0 0.08 0"
         id="feColorMatrix202" /><feBlend
         mode="normal"
         in2="BackgroundImageFix"
         result="effect1_dropShadow_43_48"
         id="feBlend204" /><feBlend
         mode="normal"
         in="SourceGraphic"
         in2="effect1_dropShadow_43_48"
         result="shape"
         id="feBlend206" /></filter></defs><g
     id="layer1"
     transform="translate(-100.15151,-126.7835)"><g
       style="fill:none"
       id="g229"
       transform="matrix(0.26458333,0,0,0.26458333,113.59749,126.00975)"><g
         filter="url(#filter0_d_43_48)"
         id="g188"><rect
           x="12"
           y="2"
           width="57.4221"
           height="56.153099"
           rx="10"
           fill="#3358d4"
           id="rect182" /><path
           d="m 33.5928,16.4439 c 0.7756,0.1327 1.5867,0.3963 2.2724,0.7108 0.0785,0.0361 0.2447,0.1187 0.4988,0.2478 0.0776,0.0396 0.1699,0.0926 0.2769,0.1591 0.0722,0.0453 0.1635,0.1007 0.274,0.1664 0.2812,0.1673 0.5779,0.3931 0.8901,0.6774 0.7392,0.6732 1.2646,1.4857 1.5762,2.4375 0.4829,1.4749 0.5143,3.0796 -0.031,4.5414 -0.3884,1.0412 -1.0558,1.9587 -1.9715,2.6019 -0.0026,0.0019 -0.0047,0.0043 -0.006,0.0072 -0.0014,0.0029 -0.002,0.0061 -0.0018,0.0092 2e-4,0.0032 0.0012,0.0063 0.0029,0.009 0.0017,0.0027 0.0041,0.0048 0.0069,0.0063 0.5404,0.2808 1.053,0.6392 1.5074,1.0339 0.7611,0.6621 1.3236,1.473 1.6873,2.4326 0.2889,0.7622 0.4322,1.551 0.43,2.3663 -8e-4,0.3361 0.0118,0.684 -0.0228,1.0021 -0.158,1.4604 -0.7177,2.7496 -1.6792,3.8677 -0.1851,0.2153 -0.4388,0.4668 -0.761,0.7543 -0.3974,0.3545 -0.8859,0.6896 -1.4654,1.0054 -2.0917,1.1392 -4.5046,1.5432 -6.8609,1.5468 -1.3063,0.0019 -2.6126,0.0022 -3.9191,9e-4 -1.4064,-0.0017 -2.8067,-0.0928 -4.2196,-0.094 -0.2317,0 -0.3261,-0.1164 -0.3265,-0.3426 -0.003,-8.3222 -0.0041,-16.6446 -0.0033,-24.9671 0,-0.1599 0.0611,-0.3455 0.2537,-0.3532 0.136,-0.0054 0.2718,-0.0129 0.4076,-0.0224 0.375,-0.0256 0.761,-0.0276 1.1372,-0.0313 1.2598,-0.0119 2.5193,-0.0304 3.7786,-0.0553 1.3013,-0.0261 2.6483,-0.0293 3.4512,-0.0078 0.9067,0.0244 1.8228,0.1145 2.7485,0.2702 0.0272,0.0045 0.0452,0.0155 0.0684,0.0195 z m 0.7406,6.5285 C 34.0806,22.0668 33.331,21.4199 32.4543,21.1477 31.8921,20.9733 31.319,20.8644 30.7348,20.821 30.551,20.8071 30.2799,20.8013 29.9213,20.8035 c -0.6185,0.0032 -1.2342,-0.0033 -1.8527,0.0166 -0.3274,0.0106 -0.6474,-0.0024 -0.9841,0.0086 -0.0217,8e-4 -0.0326,0.0121 -0.0326,0.0338 v 5.4104 c 0,0.0052 0.0021,0.0102 0.0058,0.0138 0.0038,0.0037 0.0089,0.0057 0.0141,0.0057 1.1654,-0.002 2.3352,-0.0175 3.5005,0.0118 0.4325,0.0112 0.865,0.022 1.2977,0.0326 0.4433,0.0108 0.8832,0.0552 1.3197,0.133 0.0494,0.0087 0.0954,-0.0072 0.138,-0.0476 0.4055,-0.3873 0.7468,-0.8271 0.9296,-1.3508 0.2284,-0.655 0.2557,-1.4565 0.0761,-2.099 z m -1.9125,14.259 c 0.7374,-0.1664 1.3966,-0.3805 1.9687,-0.8992 0.044,-0.0399 0.0888,-0.0789 0.1344,-0.1172 0.4511,-0.3796 0.7296,-1.044 0.8046,-1.6132 0.1185,-0.9036 -0.1397,-1.9993 -0.7912,-2.6373 -0.1854,-0.1814 -0.4475,-0.3492 -0.7862,-0.5033 -0.917,-0.4162 -1.9476,-0.5358 -2.9447,-0.5431 -1.2303,-0.0087 -2.4744,-0.0121 -3.7326,-0.0102 -0.0147,0 -0.022,0.0073 -0.022,0.022 v 6.4577 c 0,0.0023 9e-4,0.0045 0.0026,0.0062 0.0017,0.0016 0.0039,0.0026 0.0064,0.0027 1.1658,0.0586 2.3329,0.0817 3.5013,0.0692 0.5733,-0.006 1.1929,-0.0841 1.8587,-0.2343 z"
           fill="#ffffff"
           id="path184" /><path
           d="m 44.0242,35.8501 c -0.0252,-0.1022 -0.068,-0.2157 -0.0952,-0.3251 -0.5676,-2.313 -0.498,-4.801 0.2768,-7.0961 0.884,-2.6178 2.8389,-4.8938 5.4884,-5.8336 1.3213,-0.4683 2.6918,-0.614 4.0872,-0.5318 2.1287,0.1257 4.2558,1.016 5.5832,2.7419 0.5519,0.7177 0.9916,1.4984 1.3193,2.3423 0.5215,1.3451 0.682,2.8187 0.6034,4.2785 -0.0114,0.2145 -0.0102,0.4382 -0.0277,0.6421 -0.032,0.3743 -0.0669,0.7483 -0.1046,1.1221 -0.0109,0.1061 -0.0611,0.187 -0.1507,0.2429 -0.0551,0.0344 -0.141,0.0545 -0.2577,0.0602 -0.5782,0.0273 -1.1523,0.1034 -1.7305,0.1123 -3.3039,0.0521 -6.6097,0.0313 -9.9066,0.0313 -0.0264,0 -0.0375,0.0131 -0.0334,0.0391 0.2203,1.413 0.9287,2.7101 2.2512,3.368 0.8612,0.428 1.7721,0.6241 2.7595,0.6717 1.814,0.0875 3.6524,-0.144 5.3425,-0.8275 0.0725,-0.0293 0.1419,-0.0609 0.2081,-0.0948 0.0104,-0.0054 0.0221,-0.0076 0.0337,-0.0064 0.0116,0.0011 0.0225,0.0056 0.0315,0.0129 0.0488,0.039 0.0639,0.1017 0.0639,0.1672 8e-4,1.2599 4e-4,2.5198 -0.0012,3.7798 -4e-4,0.1969 -0.0432,0.3991 -0.2415,0.4927 -1.783,0.8422 -3.7562,1.138 -5.7119,1.1367 -1.7296,-0.0012 -3.3824,-0.1692 -4.9858,-0.8601 -1.7912,-0.7722 -3.2375,-2.1726 -4.119,-3.9054 -0.0131,-0.0257 -0.0558,-0.079 -0.0676,-0.1213 -0.0074,-0.0252 -0.0141,-0.0438 -0.0204,-0.0557 -0.1629,-0.3072 -0.2716,-0.629 -0.4019,-0.9492 -0.0594,-0.146 -0.1237,-0.3575 -0.193,-0.6347 z M 55.527,27.631 c -0.7529,-0.9968 -1.8539,-1.3764 -3.0791,-1.2881 -0.8864,0.0643 -1.7146,0.4541 -2.3132,1.1038 -0.4613,0.5009 -0.7732,1.1767 -0.9568,1.8378 -0.0478,0.172 -0.08,0.3403 -0.0965,0.5049 -0.0014,0.0152 0.0054,0.0228 0.0203,0.0228 1.8177,-5e-4 3.6353,-5e-4 5.4529,0 0.4129,0 0.8144,-0.0191 1.222,-0.037 0.1254,-0.0054 0.2497,-0.0193 0.3729,-0.0415 0.0133,-0.0022 0.0204,-0.01 0.0212,-0.0236 C 56.2204,28.957 55.9826,28.234 55.527,27.631 Z"
           fill="#ffffff"
           id="path186" /></g></g><g
       style="fill:none"
       id="g255"
       transform="matrix(0.26458333,0,0,0.26458333,100.15151,126.78351)"><rect
         width="57"
         height="56"
         rx="10"
         fill="#3358d4"
         id="rect231"
         x="0"
         y="0" /><rect
         x="12.721855"
         y="22.022877"
         width="6.3449798"
         height="21.274401"
         fill="#ffffff"
         id="rect233" /><circle
         cx="15.894354"
         cy="15.618074"
         r="3.9189601"
         fill="#ffffff"
         id="circle241" /><g
         style="fill:none"
         id="g2302"
         transform="translate(-59.089104,0.0253352)" /></g><path
       style="fill:#ffffff;fill-opacity:1;stroke:none;stroke-width:0.264583px;stroke-linecap:butt;stroke-linejoin:miter;stroke-opacity:1"
       d="m 106.56945,138.23192 v -5.6137 h 1.67269 v 0.77174 c 0,0 0.77174,-1.01729 2.05798,-0.88867 1.28623,0.12862 1.4967,1.09915 1.4967,1.09915 0,0 0.21633,0.49403 0.2134,0.94421 0.0175,-0.0175 0,3.67454 0,3.67454 h -1.74226 v -3.70797 c 0,0 -0.43256,-0.59532 -1.20978,-0.38861 -0.77721,0.20671 -0.81855,1.00872 -0.81855,1.00872 v 3.11713 z"
       id="path524" /></g></svg>
