<?xml version="1.0" encoding="UTF-8" standalone="no"?>
<!-- Generator: Adobe Illustrator 15.1.0, SVG Export Plug-In . SVG Version: 6.00 Build 0)  -->

<svg
   role="img"
   width="36.887989"
   height="36.887989"
   viewBox="0 0 25.821593 25.821592"
   version="1.1"
   id="svg200"
   xmlns="http://www.w3.org/2000/svg"
   xmlns:svg="http://www.w3.org/2000/svg">
  <defs
     id="defs204" />
  <title
     id="title194">WordPress.org</title>
  <circle
     style="fill:#ffffff;stroke-width:5.29065;stop-color:#000000"
     id="path312"
     cx="13.037506"
     cy="12.904144"
     r="12.479663" />
  <path
     fill="#00769d"
     d="m 12.910785,0.77464846 c 2.427231,0 4.789909,0.72301004 6.791084,2.07864484 1.949532,1.3169024 3.485919,3.1760587 4.402586,5.3450744 1.60094,3.7828373 1.174883,8.1079583 -1.12324,11.5035003 -1.316903,1.949532 -3.176059,3.485919 -5.345075,4.402586 -3.782866,1.60094 -8.1079878,1.174883 -11.5035111,-1.12324 C 4.1830969,21.664311 2.6467108,19.805155 1.7300434,17.636139 0.12910807,13.853273 0.55516473,9.5281522 2.8532837,6.1326385 4.1701861,4.1831065 6.029352,2.6467204 8.1983581,1.730053 9.6830819,1.0974234 11.296934,0.77464846 12.910785,0.77464846 Z M 12.910785,0 C 5.7840371,0 0,5.7840466 0,12.910784 c 0,7.126765 5.7840371,12.910807 12.910785,12.910807 7.126765,0 12.910807,-5.784042 12.910807,-12.910807 C 25.821592,5.7840466 20.03755,0 12.910785,0 Z"
     id="path196"
     style="stroke-width:0.956356" />
  <path
     fill="#00769d"
     d="m 2.1564731,12.910592 c 0,4.118548 2.349767,7.888504 6.0680796,9.683106 L 3.0860512,8.533867 C 2.4663325,9.9152851 2.1564731,11.400028 2.1564731,12.910592 Z M 20.179952,12.368338 c 0,-1.329813 -0.4777,-2.24648 -0.890846,-2.9694469 C 18.87596,8.6758859 18.23042,7.7592185 18.23042,6.8812836 c 0,-0.8779349 0.748827,-1.9107996 1.807513,-1.9107996 h 0.142019 C 15.803188,0.95522284 8.9992012,1.2521714 4.98394,5.641846 4.5966158,6.0679027 4.2351131,6.519781 3.9252537,6.9974809 h 0.6971837 c 1.1232402,0 2.8661993,-0.1420189 2.8661993,-0.1420189 0.5809863,-0.038732 0.6455404,0.8133809 0.064554,0.8908457 0,0 -0.5809863,0.064554 -1.2265267,0.1032865 L 10.23863,19.508015 12.588397,12.445803 10.909992,7.8495942 C 10.329006,7.8108618 9.7867509,7.7463077 9.7867509,7.7463077 9.2057741,7.7075753 9.2703282,6.8296404 9.851305,6.855462 c 0,0 1.781692,0.1420189 2.827468,0.1420189 1.045775,0 2.866199,-0.1420189 2.866199,-0.1420189 0.580986,-0.038732 0.64554,0.8133809 0.06455,0.8908457 0,0 -0.580986,0.064554 -1.226527,0.1032865 l 3.886153,11.5680448 1.11033,-3.511739 c 0.49061,-1.536386 0.787559,-2.620894 0.787559,-3.550472 z m -7.088034,1.471832 -3.2277022,9.386158 c 2.1690162,0.632629 4.4800512,0.580986 6.6103342,-0.167841 l -0.07747,-0.142019 z m 9.25705,-6.0938623 c 0.05164,0.3615026 0.07746,0.7359161 0.07746,1.1103295 0,1.0973799 -0.206573,2.3239068 -0.81338,3.8473818 l -3.292256,9.502355 c 5.035215,-2.930753 6.829817,-9.347425 4.028172,-14.4600663 z"
     id="path198"
     style="stroke-width:0.956356" />
</svg>
