<svg width="35" height="35" viewBox="0 0 35 35" fill="none" xmlns="http://www.w3.org/2000/svg">
<path d="M17.374 0.344238C14.0117 0.344238 10.725 1.34127 7.92934 3.20925C5.1337 5.07724 2.95477 7.73228 1.66808 10.8386C0.381389 13.945 0.0447327 17.3631 0.700681 20.6608C1.35663 23.9584 2.97572 26.9876 5.35321 29.365C7.73071 31.7425 10.7598 33.3616 14.0575 34.0176C17.3552 34.6735 20.7733 34.3369 23.8796 33.0502C26.986 31.7635 29.641 29.5846 31.509 26.7889C33.377 23.9933 34.374 20.7065 34.374 17.3442C34.3691 12.8371 32.5764 8.51593 29.3894 5.32889C26.2023 2.14184 21.8812 0.349188 17.374 0.344238ZM17.374 32.7479C16.2979 31.7126 13.464 28.5982 12.0581 23.4642H22.6899C21.284 28.5982 18.4501 31.7126 17.374 32.7479ZM11.7334 22.1042C11.0942 18.9631 11.0942 15.7254 11.7334 12.5842H23.0146C23.6538 15.7254 23.6538 18.9631 23.0146 22.1042H11.7334ZM17.374 1.94054C18.4501 2.97584 21.284 6.09024 22.6899 11.2242H12.0581C13.464 6.09024 16.2979 2.97584 17.374 1.94054ZM24.4137 12.5842H32.2728C33.2611 15.6806 33.2611 19.0078 32.2728 22.1042H24.4137C25.0008 18.9581 25.0008 15.7304 24.4137 12.5842ZM31.7662 11.2242H24.1162C23.2582 7.72596 21.5542 4.49192 19.1539 1.80624C21.8997 2.12525 24.5124 3.16435 26.7273 4.81826C28.9421 6.47218 30.6805 8.68214 31.7662 11.2242ZM15.5958 1.80624C13.1956 4.49192 11.4916 7.72596 10.6335 11.2242H2.98353C4.06926 8.68214 5.80763 6.47218 8.0225 4.81826C10.2374 3.16435 12.85 2.12525 15.5958 1.80624ZM2.47523 12.5842H10.3343C9.74728 15.7304 9.74728 18.9581 10.3343 22.1042H2.47523C1.48698 19.0078 1.48698 15.6806 2.47523 12.5842ZM2.98523 23.4642H10.6352C11.4933 26.9625 13.1973 30.1965 15.5975 32.8822C12.8511 32.5638 10.2378 31.5249 8.02224 29.871C5.80673 28.2171 4.06785 26.0068 2.98183 23.4642H2.98523ZM19.1556 32.8822C21.5547 30.1962 23.2575 26.9622 24.1145 23.4642H31.7645C30.6788 26.0063 28.9404 28.2163 26.7256 29.8702C24.5107 31.5241 21.898 32.5632 19.1522 32.8822H19.1556Z" fill="white"/>
</svg>
