<svg width="21" height="22" viewBox="0 0 21 22" fill="none" xmlns="http://www.w3.org/2000/svg">
<path d="M20.8535 10.646C20.9 10.6925 20.9369 10.7476 20.9621 10.8083C20.9872 10.869 21.0002 10.9341 21.0002 10.9998C21.0002 11.0655 20.9872 11.1306 20.9621 11.1913C20.9369 11.252 20.9 11.3071 20.8535 11.3535L10.8535 21.3535C10.8071 21.4 10.752 21.4369 10.6913 21.4621C10.6306 21.4872 10.5655 21.5002 10.4998 21.5002C10.4341 21.5002 10.369 21.4872 10.3083 21.4621C10.2476 21.4369 10.1925 21.4 10.146 21.3535L0.146039 11.3535C0.0522192 11.2597 -0.000488284 11.1325 -0.000488281 10.9998C-0.000488279 10.8671 0.0522196 10.7399 0.14604 10.646C0.23986 10.5522 0.367108 10.4995 0.49979 10.4995C0.632472 10.4995 0.75972 10.5522 0.85354 10.646L10.4998 20.2923L20.146 10.646C20.1925 10.5996 20.2476 10.5627 20.3083 10.5375C20.369 10.5123 20.4341 10.4994 20.4998 10.4994C20.5655 10.4994 20.6306 10.5123 20.6913 10.5375C20.752 10.5627 20.8071 10.5996 20.8535 10.646ZM10.146 11.3535C10.1925 11.4 10.2476 11.4369 10.3083 11.4621C10.369 11.4872 10.4341 11.5002 10.4998 11.5002C10.5655 11.5002 10.6306 11.4872 10.6913 11.4621C10.752 11.4369 10.8071 11.4 10.8535 11.3535L20.8535 1.35354C20.9 1.30708 20.9368 1.25193 20.962 1.19124C20.9871 1.13054 21.0001 1.06549 21.0001 0.99979C21.0001 0.934092 20.9871 0.869038 20.962 0.808342C20.9368 0.747645 20.9 0.692495 20.8535 0.646039C20.8071 0.599584 20.7519 0.562734 20.6912 0.537593C20.6305 0.512452 20.5655 0.499512 20.4998 0.499512C20.4341 0.499512 20.369 0.512452 20.3083 0.537593C20.2476 0.562734 20.1925 0.599584 20.146 0.646039L10.4998 10.2923L0.85354 0.646039C0.75972 0.552219 0.632472 0.499512 0.49979 0.499512C0.367108 0.499512 0.23986 0.552219 0.146039 0.646039C0.0522192 0.73986 -0.000488281 0.867108 -0.000488281 0.99979C-0.000488281 1.13247 0.0522192 1.25972 0.146039 1.35354L10.146 11.3535Z" fill="white"/>
</svg>
