<svg width="329" height="124" viewBox="0 0 329 124" fill="none" xmlns="http://www.w3.org/2000/svg">
<ellipse cx="165.5" cy="104.5" rx="133.5" ry="19.5" fill="#FF8300"/>
<path d="M67.0223 113V97.544H71.6423C73.1963 97.544 74.5193 97.775 75.6113 98.237C76.7033 98.699 77.5783 99.315 78.2363 100.085C78.9083 100.855 79.3983 101.716 79.7063 102.668C80.0143 103.62 80.1683 104.579 80.1683 105.545C80.1683 106.693 79.9583 107.729 79.5383 108.653C79.1323 109.563 78.5723 110.347 77.8583 111.005C77.1443 111.649 76.3183 112.146 75.3803 112.496C74.4423 112.832 73.4483 113 72.3983 113H67.0223ZM70.0673 110.06H71.8733C72.6433 110.06 73.3433 109.962 73.9733 109.766C74.6033 109.556 75.1423 109.255 75.5903 108.863C76.0523 108.471 76.4023 107.981 76.6403 107.393C76.8923 106.791 77.0183 106.105 77.0183 105.335C77.0183 104.327 76.8503 103.508 76.5143 102.878C76.1923 102.234 75.7863 101.737 75.2963 101.387C74.8203 101.037 74.3303 100.799 73.8263 100.673C73.3223 100.533 72.8953 100.463 72.5453 100.463H70.0673V110.06ZM86.1004 101.261L84.5884 100.673C84.8964 100.393 85.1484 99.987 85.3444 99.455C85.5404 98.923 85.5894 98.412 85.4914 97.922L87.7384 97.775C87.8224 98.167 87.7874 98.601 87.6334 99.077C87.4934 99.553 87.2834 99.987 87.0034 100.379C86.7374 100.771 86.4364 101.065 86.1004 101.261ZM91.503 113L98.475 96.935H98.643L105.615 113H102.087L97.635 101.702L99.84 100.19L94.506 113H91.503ZM96.27 107.414H100.911L101.982 109.976H95.325L96.27 107.414ZM110.808 97.544H113.853V110.06H121.119V113H110.808V97.544ZM124.593 97.544H135.009V100.484H131.25V113H128.205V100.484H124.593V97.544ZM140.887 97.544H151.429V100.484H143.932V103.781H150.568V106.721H143.932V110.06H151.723V113H140.887V97.544ZM162.497 97.544C163.463 97.544 164.324 97.67 165.08 97.922C165.836 98.16 166.466 98.51 166.97 98.972C167.488 99.42 167.88 99.966 168.146 100.61C168.412 101.24 168.545 101.954 168.545 102.752C168.545 103.382 168.447 104.012 168.251 104.642C168.069 105.272 167.761 105.846 167.327 106.364C166.907 106.882 166.347 107.302 165.647 107.624C164.947 107.932 164.079 108.086 163.043 108.086H160.859V113H157.814V97.544H162.497ZM163.022 105.146C163.484 105.146 163.869 105.069 164.177 104.915C164.485 104.761 164.723 104.565 164.891 104.327C165.073 104.089 165.199 103.844 165.269 103.592C165.353 103.326 165.395 103.081 165.395 102.857C165.395 102.689 165.367 102.479 165.311 102.227C165.269 101.961 165.171 101.695 165.017 101.429C164.863 101.163 164.625 100.939 164.303 100.757C163.995 100.575 163.575 100.484 163.043 100.484H160.859V105.146H163.022ZM165.878 107.036L169.7 113H166.151L162.245 107.12L165.878 107.036ZM188.989 113.63L177.271 103.046L178.174 103.55L178.237 113H175.15V96.935H175.276L186.742 107.477L186.07 107.183L186.007 97.544H189.073V113.63H188.989ZM194.25 113L201.222 96.935H201.39L208.362 113H204.834L200.382 101.702L202.587 100.19L197.253 113H194.25ZM199.017 107.414H203.658L204.729 109.976H198.072L199.017 107.414ZM227.395 113.63L215.677 103.046L216.58 103.55L216.643 113H213.556V96.935H213.682L225.148 107.477L224.476 107.183L224.413 97.544H227.479V113.63H227.395ZM245.991 111.719C245.823 111.859 245.508 112.048 245.046 112.286C244.598 112.524 244.045 112.734 243.387 112.916C242.729 113.098 242.001 113.182 241.203 113.168C239.985 113.14 238.893 112.923 237.927 112.517C236.975 112.097 236.163 111.53 235.491 110.816C234.833 110.102 234.329 109.283 233.979 108.359C233.629 107.435 233.454 106.448 233.454 105.398C233.454 104.222 233.629 103.144 233.979 102.164C234.343 101.184 234.854 100.337 235.512 99.623C236.184 98.909 236.982 98.356 237.906 97.964C238.83 97.572 239.852 97.376 240.972 97.376C242.008 97.376 242.925 97.516 243.723 97.796C244.521 98.076 245.172 98.377 245.676 98.699L244.479 101.576C244.129 101.31 243.66 101.037 243.072 100.757C242.498 100.463 241.833 100.316 241.077 100.316C240.489 100.316 239.922 100.442 239.376 100.694C238.844 100.932 238.368 101.275 237.948 101.723C237.542 102.171 237.22 102.696 236.982 103.298C236.744 103.886 236.625 104.53 236.625 105.23C236.625 105.972 236.73 106.651 236.94 107.267C237.164 107.883 237.479 108.415 237.885 108.863C238.291 109.297 238.774 109.633 239.334 109.871C239.908 110.109 240.552 110.228 241.266 110.228C242.092 110.228 242.799 110.095 243.387 109.829C243.975 109.563 244.423 109.283 244.731 108.989L245.991 111.719ZM251.981 97.544H262.523V100.484H255.026V103.781H261.662V106.721H255.026V110.06H262.817V113H251.981V97.544Z" fill="white"/>
<path d="M135.272 1.616H157.36V7.776H141.652V14.684H155.556V20.844H141.652V27.84H157.976V34H135.272V1.616ZM193.572 35.32L169.02 13.144L170.912 14.2L171.044 34H164.576V0.339998H164.84L188.864 22.428L187.456 21.812L187.324 1.616H193.748V35.32H193.572ZM38.6717 45.616C40.6957 45.616 42.4997 45.88 44.0837 46.408C45.6677 46.9067 46.9877 47.64 48.0437 48.608C49.129 49.5467 49.9504 50.6907 50.5077 52.04C51.065 53.36 51.3437 54.856 51.3437 56.528C51.3437 57.848 51.1384 59.168 50.7277 60.488C50.3464 61.808 49.701 63.0107 48.7917 64.096C47.9117 65.1813 46.7384 66.0613 45.2717 66.736C43.805 67.3813 41.9864 67.704 39.8157 67.704H35.2397V78H28.8597V45.616H38.6717ZM39.7717 61.544C40.7397 61.544 41.5464 61.3827 42.1917 61.06C42.837 60.7373 43.3357 60.3267 43.6877 59.828C44.069 59.3293 44.333 58.816 44.4797 58.288C44.6557 57.7307 44.7437 57.2173 44.7437 56.748C44.7437 56.396 44.685 55.956 44.5677 55.428C44.4797 54.8707 44.2744 54.3133 43.9517 53.756C43.629 53.1987 43.1304 52.7293 42.4557 52.348C41.8104 51.9667 40.9304 51.776 39.8157 51.776H35.2397V61.544H39.7717ZM45.7557 65.504L53.7637 78H46.3277L38.1437 65.68L45.7557 65.504ZM59.0238 45.616H81.1118V51.776H65.4038V58.684H79.3078V64.844H65.4038V71.84H81.7278V78H59.0238V45.616ZM112.616 75.316C112.264 75.6093 111.604 76.0053 110.636 76.504C109.698 77.0027 108.539 77.4427 107.16 77.824C105.782 78.2053 104.256 78.3813 102.584 78.352C100.032 78.2933 97.7444 77.8387 95.7204 76.988C93.7258 76.108 92.0244 74.92 90.6164 73.424C89.2378 71.928 88.1818 70.212 87.4484 68.276C86.7151 66.34 86.3484 64.272 86.3484 62.072C86.3484 59.608 86.7151 57.3493 87.4484 55.296C88.2111 53.2427 89.2818 51.468 90.6604 49.972C92.0684 48.476 93.7404 47.3173 95.6764 46.496C97.6124 45.6747 99.7538 45.264 102.1 45.264C104.271 45.264 106.192 45.5573 107.864 46.144C109.536 46.7307 110.9 47.3613 111.956 48.036L109.448 54.064C108.715 53.5067 107.732 52.9347 106.5 52.348C105.298 51.732 103.904 51.424 102.32 51.424C101.088 51.424 99.9004 51.688 98.7564 52.216C97.6418 52.7147 96.6444 53.4333 95.7644 54.372C94.9138 55.3107 94.2391 56.4107 93.7404 57.672C93.2418 58.904 92.9924 60.2533 92.9924 61.72C92.9924 63.2747 93.2124 64.6973 93.6524 65.988C94.1218 67.2787 94.7818 68.3933 95.6324 69.332C96.4831 70.2413 97.4951 70.9453 98.6684 71.444C99.8711 71.9427 101.22 72.192 102.716 72.192C104.447 72.192 105.928 71.9133 107.16 71.356C108.392 70.7987 109.331 70.212 109.976 69.596L112.616 75.316ZM146.244 45.616V78H139.864V64.844H125.388V78H119.008V45.616H125.388V58.684H139.864V45.616H146.244ZM154.586 45.616H176.674V51.776H160.966V58.684H174.87V64.844H160.966V71.84H177.29V78H154.586V45.616ZM193.703 45.616C195.727 45.616 197.531 45.88 199.115 46.408C200.699 46.9067 202.019 47.64 203.075 48.608C204.16 49.5467 204.982 50.6907 205.539 52.04C206.096 53.36 206.375 54.856 206.375 56.528C206.375 57.848 206.17 59.168 205.759 60.488C205.378 61.808 204.732 63.0107 203.823 64.096C202.943 65.1813 201.77 66.0613 200.303 66.736C198.836 67.3813 197.018 67.704 194.847 67.704H190.271V78H183.891V45.616H193.703ZM194.803 61.544C195.771 61.544 196.578 61.3827 197.223 61.06C197.868 60.7373 198.367 60.3267 198.719 59.828C199.1 59.3293 199.364 58.816 199.511 58.288C199.687 57.7307 199.775 57.2173 199.775 56.748C199.775 56.396 199.716 55.956 199.599 55.428C199.511 54.8707 199.306 54.3133 198.983 53.756C198.66 53.1987 198.162 52.7293 197.487 52.348C196.842 51.9667 195.962 51.776 194.847 51.776H190.271V61.544H194.803ZM200.787 65.504L208.795 78H201.359L193.175 65.68L200.787 65.504ZM237.226 75.316C236.874 75.6093 236.214 76.0053 235.246 76.504C234.307 77.0027 233.148 77.4427 231.77 77.824C230.391 78.2053 228.866 78.3813 227.194 78.352C224.642 78.2933 222.354 77.8387 220.33 76.988C218.335 76.108 216.634 74.92 215.226 73.424C213.847 71.928 212.791 70.212 212.058 68.276C211.324 66.34 210.958 64.272 210.958 62.072C210.958 59.608 211.324 57.3493 212.058 55.296C212.82 53.2427 213.891 51.468 215.27 49.972C216.678 48.476 218.35 47.3173 220.286 46.496C222.222 45.6747 224.363 45.264 226.71 45.264C228.88 45.264 230.802 45.5573 232.474 46.144C234.146 46.7307 235.51 47.3613 236.566 48.036L234.058 54.064C233.324 53.5067 232.342 52.9347 231.11 52.348C229.907 51.732 228.514 51.424 226.93 51.424C225.698 51.424 224.51 51.688 223.366 52.216C222.251 52.7147 221.254 53.4333 220.374 54.372C219.523 55.3107 218.848 56.4107 218.35 57.672C217.851 58.904 217.602 60.2533 217.602 61.72C217.602 63.2747 217.822 64.6973 218.262 65.988C218.731 67.2787 219.391 68.3933 220.242 69.332C221.092 70.2413 222.104 70.9453 223.278 71.444C224.48 71.9427 225.83 72.192 227.326 72.192C229.056 72.192 230.538 71.9133 231.77 71.356C233.002 70.7987 233.94 70.212 234.586 69.596L237.226 75.316ZM270.854 45.616V78H264.474V64.844H249.998V78H243.618V45.616H249.998V58.684H264.474V45.616H270.854ZM279.196 45.616H301.284V51.776H285.576V58.684H299.48V64.844H285.576V71.84H301.9V78H279.196V45.616Z" fill="#FF8300"/>
</svg>
