<svg width="189" height="84" viewBox="0 0 189 84" fill="none" xmlns="http://www.w3.org/2000/svg">
<path d="M129.794 10.7892H147.984C147.984 10.7892 169.984 9.62915 169.434 20.9492C168.564 38.4192 141.784 37.1692 141.784 37.1692L146.984 14.4592H128.784L121.184 47.3292H139.244C139.244 47.3292 157.244 48.1292 172.124 40.9791C187.924 33.3591 188.064 19.9792 188.064 19.9792C188.079 17.2572 187.368 14.5805 186.004 12.225C184.64 9.86947 182.672 7.92052 180.304 6.57915C170.984 1.04915 158.854 0.62915 158.854 0.62915H119.074L95.5138 31.2492L85.6338 0.62915H17.0638L14.5238 10.7892H32.7238C32.7238 10.7892 54.7338 9.62915 54.1738 20.9492C53.3038 38.4192 26.5238 37.1692 26.5238 37.1692L31.7438 14.4592H13.5438L5.92383 47.3292H23.9838C23.9838 47.3292 41.9838 48.1292 56.8538 40.9791C72.6538 33.3591 72.7938 19.9792 72.7938 19.9792C72.7063 18.1302 72.4722 16.2911 72.0938 14.4792C71.6638 13.0692 71.0938 10.8092 71.0938 10.8092H71.9838L88.7438 57.9091L129.794 10.7892Z" fill="#FF8300"/>
<path d="M89.3044 57.9092C40.5244 57.9092 0.984375 63.6292 0.984375 70.6292C0.984375 77.6292 40.5244 83.3292 89.3044 83.3292C138.084 83.3292 177.624 77.6292 177.624 70.6292C177.624 63.6292 138.084 57.9092 89.3044 57.9092ZM46.5244 77.5492H42.8044L35.0444 64.3592H40.2544L44.7144 72.3592L49.1944 64.3592H54.4144L46.5244 77.5492ZM67.4544 77.5492H62.6544V64.3592H67.4544V77.5492ZM84.4544 77.5492H77.6544V64.3592H84.4544C89.6044 64.3592 93.8344 67.2492 93.8344 70.9492C93.8344 74.6492 89.5644 77.5492 84.4444 77.5492H84.4544ZM113.614 67.2692H107.914V69.4692H113.324V72.3692H107.914V74.6292H113.614V77.5292H103.114V64.3592H113.614V67.2692ZM132.904 77.9892C126.974 77.9892 122.694 74.9892 122.694 70.7092C122.694 66.7092 127.584 63.9292 132.904 63.9292C138.224 63.9292 143.114 66.7192 143.114 70.7092C143.104 74.9792 138.814 77.9892 132.894 77.9892H132.904Z" fill="#FF8300"/>
<path d="M132.894 67.2493C135.754 67.2493 138.104 68.9093 138.104 70.7293C138.104 72.9993 135.754 74.6593 132.894 74.6593C130.034 74.6593 127.674 72.9993 127.674 70.7293C127.674 68.9093 130.024 67.2493 132.894 67.2493Z" fill="#FF8300"/>
<path d="M83.5636 67.269H82.4336V74.629H83.5136C86.3836 74.629 88.8336 73.509 88.8336 70.939C88.8336 68.629 86.6536 67.269 83.5636 67.269Z" fill="#FF8300"/>
</svg>
