<svg xmlns="http://www.w3.org/2000/svg" viewBox="0 0 202.65 99.94"><defs><style>.cls-1{fill:none;stroke:#231f20;stroke-linecap:round;stroke-linejoin:round;stroke-width:3px;}</style></defs><g id="Layer_2" data-name="Layer 2"><g id="Layer_1-2" data-name="Layer 1"><path class="cls-1" d="M36.2,31.76S28.11,30.2,1.5,1.5c0,0,2.61,32.09,0,40.17"/><path class="cls-1" d="M4.47,6.32S11.67,67.56,64.63,71"/><path class="cls-1" d="M89.41,30s-20.15,35-1,53.61"/><path class="cls-1" d="M199.36,38.63s7,5.09-6.84,58.31"/><path class="cls-1" d="M107.15,77.15s16.7-26.35,14.09-40.95c0,0-8.09-15-5.48,37.63,0,0,4.7,29.41-8.61,23.93"/><path class="cls-1" d="M118.89,76.89s10.18-7.3,10.18-12.26c0,0-2.61,11.74,1.3,12.26s7-9.39,7-9.39,6.52,18.91,11,6.33l6.78-30.33"/><line class="cls-1" x1="147.07" y1="64.11" x2="159.85" y2="60.82"/><path class="cls-1" d="M183.2,81.36c-3.46.85,1-11.54,1-11.54-3.46,1-8.41-.59-8.41-.59l-1.91,6.66c-4.43,12.59-7.83-6.75-7.83-6.75s-3.13,9.92-7,9.39-1.31-12.26-1.31-12.26-2,17.57-11.33,11.88"/></g></g></svg>